<svg width="40" height="40" viewBox="0 0 40 40" fill="none" xmlns="http://www.w3.org/2000/svg">
<g clip-path="url(#clip0_140_3)">
<path d="M33.8617 7.28332C31.2684 6.09305 28.5317 5.24429 25.72 4.75832C25.6944 4.75332 25.6678 4.7566 25.6441 4.76769C25.6205 4.77877 25.6009 4.79708 25.5883 4.81998C25.2383 5.44498 24.8483 6.25998 24.575 6.90332C21.544 6.44296 18.461 6.44296 15.43 6.90332C15.1258 6.19049 14.7825 5.49498 14.4017 4.81998C14.3885 4.79759 14.3689 4.77972 14.3454 4.76871C14.3219 4.7577 14.2956 4.75407 14.27 4.75832C11.4581 5.24328 8.72122 6.09208 6.12833 7.28332C6.10638 7.29252 6.08777 7.30823 6.075 7.32832C0.888333 15.0767 -0.533333 22.6333 0.165 30.095C0.166696 30.1135 0.172153 30.1315 0.181037 30.1478C0.189921 30.1641 0.202045 30.1785 0.216667 30.19C3.23599 32.427 6.61352 34.1346 10.205 35.24C10.2303 35.2473 10.2573 35.2468 10.2823 35.2384C10.3073 35.2301 10.3291 35.2144 10.345 35.1933C11.1171 34.1441 11.8006 33.0325 12.3883 31.87C12.3965 31.8541 12.4013 31.8366 12.4022 31.8187C12.4032 31.8009 12.4003 31.783 12.3939 31.7663C12.3874 31.7496 12.3775 31.7345 12.3648 31.7219C12.352 31.7093 12.3368 31.6996 12.32 31.6933C11.2424 31.2809 10.1991 30.7838 9.2 30.2067C9.18169 30.1961 9.16627 30.1811 9.15513 30.1631C9.144 30.1451 9.13748 30.1247 9.13616 30.1036C9.13484 30.0824 9.13876 30.0613 9.14757 30.0421C9.15638 30.0229 9.16981 30.0061 9.18667 29.9933C9.39707 29.8359 9.60379 29.6736 9.80667 29.5067C9.82441 29.4923 9.84581 29.4831 9.86847 29.4801C9.89113 29.4772 9.91417 29.4806 9.935 29.49C16.4817 32.4783 23.5683 32.4783 30.0383 29.49C30.0594 29.4803 30.0827 29.4767 30.1057 29.4796C30.1287 29.4826 30.1504 29.4919 30.1683 29.5067C30.3683 29.67 30.5783 29.8367 30.79 29.9933C30.8067 30.0059 30.82 30.0224 30.8289 30.0413C30.8377 30.0602 30.8418 30.0809 30.8409 30.1018C30.8399 30.1226 30.8338 30.1429 30.8232 30.1609C30.8126 30.1789 30.7978 30.194 30.78 30.205C29.7832 30.7876 28.7389 31.2849 27.6583 31.6916C27.6415 31.6981 27.6262 31.708 27.6135 31.7207C27.6008 31.7335 27.5908 31.7488 27.5844 31.7656C27.5779 31.7824 27.5751 31.8004 27.5761 31.8184C27.577 31.8364 27.5818 31.8539 27.59 31.87C28.19 33.0333 28.8767 34.14 29.6317 35.1917C29.6472 35.2131 29.6691 35.2291 29.6942 35.2375C29.7193 35.2458 29.7464 35.2461 29.7717 35.2383C33.3691 34.1364 36.7522 32.4285 39.775 30.1883C39.7897 30.1779 39.8021 30.1645 39.8113 30.149C39.8204 30.1335 39.8263 30.1162 39.8283 30.0983C40.6617 21.47 38.4317 13.975 33.9133 7.33165C33.9028 7.30925 33.8844 7.29147 33.8617 7.28165V7.28332ZM13.3667 25.55C11.395 25.55 9.77167 23.7417 9.77167 21.5183C9.77167 19.2967 11.365 17.4867 13.3667 17.4867C15.3833 17.4867 16.9933 19.3133 16.9617 21.52C16.9617 23.7416 15.3683 25.55 13.3667 25.55V25.55ZM26.6583 25.55C24.6867 25.55 23.0633 23.7417 23.0633 21.5183C23.0633 19.2967 24.655 17.4867 26.6583 17.4867C28.675 17.4867 30.285 19.3133 30.2533 21.52C30.2533 23.7416 28.6767 25.55 26.6583 25.55V25.55Z" fill="#58C69E"/>
</g>
<defs>
<clipPath id="clip0_140_3">
<rect width="40" height="40" fill="white"/>
</clipPath>
</defs>
</svg>
