<svg width="80" height="80" viewBox="0 0 80 80" fill="none" xmlns="http://www.w3.org/2000/svg">
<path d="M73.3333 40.0001C73.3333 54.9334 63.5333 67.5667 50 71.8001V63.3334C50 60.4834 48.8 57.9334 46.9 56.1001C55.6333 54.5167 60 49.4334 60 40.0001C60 35.9167 59.1667 32.6834 57.5333 30.1667C58.2667 27.3167 58.7 23.2667 56.6667 20.0001C52.7333 20.0001 49.9833 22.3167 48.3667 24.2167C45.95 23.6334 43.1667 23.3334 40 23.3334C37 23.3334 34.2333 23.6667 31.7667 24.3501C30.1667 22.4334 27.3667 20.0001 23.3333 20.0001C20.9667 23.8001 21.9333 27.9001 22.8333 30.2001C21.0333 32.7167 20 35.9501 20 40.0001C20 49.4334 24.3667 54.5167 33.1 56.1001C31.9833 57.1834 31.1167 58.5001 30.5833 60.0001H26.6667C24.2667 60.0001 23.3333 58.9334 22.05 57.2001C20.7667 55.4667 19.3833 54.3001 17.7333 53.8167C16.85 53.7167 16.25 54.4334 17.0333 55.0667C19.65 56.9501 19.8333 60.0334 20.8833 62.0501C21.8333 63.8667 23.8 65.0001 26.0167 65.0001H30V71.8001C16.4667 67.5667 6.66667 54.9334 6.66667 40.0001C6.66667 21.5834 21.5833 6.66675 40 6.66675C58.4167 6.66675 73.3333 21.5834 73.3333 40.0001Z" fill="white"/>
</svg>
