<svg width="40" height="40" viewBox="0 0 40 40" fill="none" xmlns="http://www.w3.org/2000/svg">
<g clip-path="url(#clip0_8_69)">
<path d="M37.7994 2.20032C36.333 0.733532 34.5662 0 32.5004 0H7.50023C5.43445 0 3.66766 0.733532 2.2006 2.20032C0.733806 3.66738 0.000274658 5.43408 0.000274658 7.49995V32.4999C0.000274658 34.5656 0.733806 36.3324 2.2006 37.7995C3.66766 39.2666 5.43445 40.0001 7.50023 40.0001H32.5001C34.5659 40.0001 36.3327 39.2666 37.7991 37.7995C39.2662 36.3324 39.9997 34.5656 39.9997 32.4999V7.49995C39.9996 5.43408 39.2661 3.66711 37.7994 2.20032ZM12.1876 33.4893H6.17199V15.4164H12.1876V33.4893ZM11.6411 12.0703C11.0162 12.6693 10.1915 12.9689 9.16705 12.9689H9.14078C8.1513 12.9689 7.34863 12.6693 6.73213 12.0703C6.11553 11.4713 5.80741 10.7292 5.80741 9.84384C5.80741 8.94111 6.12447 8.19445 6.75794 7.60403C7.39187 7.01379 8.21205 6.71854 9.21886 6.71854C10.2258 6.71854 11.0331 7.01379 11.6408 7.60403C12.2484 8.19445 12.561 8.94111 12.5782 9.84384C12.5781 10.7289 12.266 11.471 11.6411 12.0703ZM33.8283 33.4893H27.8126V23.8281C27.8126 21.1028 26.806 19.7397 24.792 19.7397C24.0282 19.7397 23.3855 19.9523 22.8649 20.3777C22.3436 20.8029 21.9531 21.3194 21.6931 21.9275C21.5713 22.2396 21.5108 22.7256 21.5108 23.3852V33.4892H15.4951C15.5472 22.5867 15.5472 16.5621 15.4951 15.4162H21.5108V17.9678C22.7756 15.9902 24.5717 14.9994 26.9015 14.9994C28.9848 14.9994 30.6604 15.6853 31.9277 17.0566C33.1951 18.4281 33.8287 20.451 33.8287 23.1239V33.4893H33.8283Z" fill="#58C69E"/>
</g>
<defs>
<clipPath id="clip0_8_69">
<rect width="40" height="40" fill="white"/>
</clipPath>
</defs>
</svg>
