<svg width="40" height="40" viewBox="0 0 28 40" fill="none" xmlns="http://www.w3.org/2000/svg">
<path d="M20.3281 14.4763C20.3281 10.9975 17.4856 8.16751 13.9919 8.16751C10.4981 8.16751 7.65562 10.9975 7.65562 14.4763C7.65562 17.955 10.4981 20.785 13.9919 20.785C17.4856 20.785 20.3281 17.955 20.3281 14.4763Z" fill="#58C69E"/>
<path d="M13.9887 39.9975L16.5569 36.6381C19.2375 33.0894 27.9831 20.9981 27.9831 14.3875C27.9837 5.78313 22.3612 0.00250244 13.9919 0.00250244C5.6225 0.00250244 0 5.78313 0 14.3881C0 21.5069 10.27 35.1169 11.4381 36.6413L13.9887 39.9975ZM5.15562 14.4763C5.15562 9.61938 9.11938 5.6675 13.9919 5.6675C18.8644 5.6675 22.8281 9.61938 22.8281 14.4763C22.8281 19.3331 18.8644 23.285 13.9919 23.285C9.11938 23.285 5.15562 19.3338 5.15562 14.4763Z" fill="#58C69E"/>
</svg>
