<svg width="35" height="36" viewBox="0 0 35 36" fill="none" xmlns="http://www.w3.org/2000/svg">
<g clip-path="url(#clip0_8_24)">
<path d="M31.6155 32.5062L29.2956 34.8261C28.8812 35.2384 27.6678 35.499 27.6315 35.499C20.2873 35.5609 13.2166 32.6772 8.02045 27.4798C2.80936 22.2697 -0.0776537 15.1712 0.00246328 7.80569C0.00246328 7.80138 0.268449 6.62225 0.681817 6.2121L3.00172 3.89007C3.853 3.03989 5.48282 2.65537 6.62463 3.03558L7.11381 3.20005C8.25561 3.58027 9.44862 4.84061 9.76478 6.00053L10.9332 10.2878C11.2504 11.4499 10.8243 13.1033 9.97409 13.9534L8.42323 15.5043C9.94422 21.1417 14.3649 25.5614 19.9991 27.0845L21.55 25.5336C22.4002 24.6833 24.0579 24.2583 25.22 24.5744L29.5073 25.7451C30.6651 26.0591 31.9255 27.251 32.3079 28.3938L32.4702 28.883C32.8502 30.0261 32.4657 31.656 31.6155 32.5062ZM19.6872 17.9995H21.8746C21.8746 15.5835 19.9158 13.6246 17.4998 13.6246V15.8121C18.7055 15.8121 19.6872 16.7947 19.6872 17.9995ZM28.4369 17.9995C28.4369 11.9584 23.5408 7.06228 17.4998 7.06228V9.24978C22.3253 9.24978 26.2495 13.1761 26.2495 17.9995H28.4369ZM17.4998 0.5V2.68743C25.9419 2.68743 32.8118 9.55732 32.8118 17.9995H34.9992C34.9992 8.33547 27.1638 0.5 17.4998 0.5Z" fill="#58C69E"/>
</g>
<defs>
<clipPath id="clip0_8_24">
<rect width="35" height="35" fill="white" transform="translate(0 0.5)"/>
</clipPath>
</defs>
</svg>
