<svg width="174" height="63" viewBox="0 0 174 63" fill="none" xmlns="http://www.w3.org/2000/svg">
<path d="M89.7975 19.7882L97.9722 19.2669C98.1586 20.5855 98.5005 21.5668 99.0602 22.2721C99.9615 23.3761 101.205 23.9281 102.852 23.9281C104.064 23.9281 105.028 23.6522 105.681 23.0695C106.302 22.6095 106.675 21.8735 106.675 21.1068C106.675 20.3709 106.333 19.6655 105.743 19.2055C105.121 18.6536 103.66 18.1016 101.36 17.6109C97.5992 16.7829 94.8951 15.6789 93.3099 14.2683C91.7246 12.9497 90.8232 11.0177 90.8854 8.96306C90.8854 7.55243 91.3204 6.14179 92.1287 4.97649C93.0611 3.65784 94.3354 2.6152 95.8586 2.03254C97.5059 1.32722 99.806 0.959229 102.697 0.959229C106.24 0.959229 108.944 1.60322 110.809 2.92186C112.674 4.20984 113.793 6.29512 114.135 9.14707L106.054 9.60705C105.836 8.38042 105.401 7.4911 104.686 6.90844C103.971 6.3258 103.039 6.04981 101.827 6.04981C100.832 6.04981 100.086 6.26447 99.5885 6.66312C99.1222 7.03112 98.8114 7.5831 98.8425 8.19641C98.8425 8.65642 99.0913 9.08574 99.4641 9.36174C99.8682 9.72973 100.832 10.0671 102.355 10.3737C106.116 11.171 108.789 11.9683 110.436 12.7963C112.084 13.6243 113.265 14.6363 113.98 15.8323C114.726 17.0589 115.099 18.4695 115.068 19.9109C115.068 21.6282 114.57 23.3454 113.576 24.7867C112.55 26.2895 111.12 27.4546 109.442 28.16C107.67 28.9267 105.432 29.3253 102.759 29.3253C98.0344 29.3253 94.7706 28.4361 92.9369 26.6268C91.1029 24.8174 90.015 22.5481 89.7975 19.7882ZM3.04574 28.8653V1.44989H17.3748C20.0169 1.44989 22.0682 1.66455 23.467 2.12454C24.8346 2.55387 26.047 3.44317 26.855 4.63915C27.7565 5.9578 28.1915 7.4911 28.1606 9.08574C28.2537 11.7844 26.855 14.3603 24.4616 15.7096C23.5292 16.2309 22.5034 16.5989 21.4467 16.7829C22.2237 16.9976 23.0009 17.3656 23.6847 17.7949C24.213 18.2242 24.6482 18.7149 25.0523 19.2362C25.5184 19.7575 25.9225 20.3402 26.2645 20.9535L30.4296 28.8961H20.6696L16.0694 20.4628C15.4788 19.3895 14.9815 18.6842 14.5152 18.3469C13.8936 17.9176 13.1476 17.7029 12.4016 17.7029H11.6556V28.8347H3.04574V28.8653ZM11.6556 12.551H15.2923C16.0694 12.4897 16.8154 12.367 17.5613 12.183C18.1208 12.091 18.6182 11.7844 18.9601 11.3244C19.7993 10.2204 19.675 8.65642 18.6492 7.70576C18.0897 7.24578 17.0018 7.00044 15.4477 7.00044H11.6556V12.551ZM1.08752 52.3556L9.26226 51.8343C9.44877 53.153 9.79068 54.1342 10.3502 54.8396C11.2205 55.9435 12.4949 56.5262 14.1422 56.5262C15.3545 56.5262 16.318 56.2503 16.9708 55.6676C17.5924 55.1769 17.9654 54.4716 17.9654 53.7048C17.9654 52.9689 17.6235 52.2635 17.0329 51.8035C16.4113 51.2517 14.9504 50.6996 12.6192 50.209C8.85819 49.381 6.15399 48.277 4.56879 46.8663C2.98356 45.5477 2.08217 43.6158 2.14434 41.5612C2.14434 40.1505 2.57949 38.7398 3.38765 37.5745C4.32012 36.2558 5.59452 35.2131 7.11756 34.6307C8.76495 33.9253 11.0651 33.5574 13.9558 33.5574C17.4992 33.5574 20.2034 34.2013 22.0682 35.5199C23.9333 36.8385 25.0212 38.8931 25.3631 41.7451L17.2816 42.2051C17.064 40.9785 16.6289 40.0891 15.914 39.5064C15.2301 38.9237 14.2666 38.6478 13.0544 38.6784C12.0597 38.6784 11.3137 38.8931 10.8164 39.3225C10.3191 39.6905 10.0393 40.2424 10.0704 40.8559C10.0704 41.3157 10.3191 41.7451 10.6921 42.021C11.0961 42.389 12.0597 42.7264 13.5828 43.0331C17.3438 43.8305 20.0169 44.6277 21.6642 45.4557C23.3117 46.2837 24.4927 47.2958 25.2076 48.4917C25.9536 49.7183 26.3267 51.129 26.3267 52.5395C26.3267 54.2569 25.7984 55.9435 24.8346 57.3848C23.8089 58.8875 22.3793 60.0527 20.7007 60.758C18.929 61.5248 16.691 61.9234 14.0179 61.9234C9.29334 61.9234 6.02967 61.0342 4.1958 59.2247C2.36192 57.3848 1.33619 55.1155 1.08752 52.3556Z" fill="white"/>
<path d="M42.4275 50.2087L49.9495 52.4474C49.5454 54.3181 48.7063 56.0968 47.5562 57.6607C46.4993 59.0406 45.1006 60.1139 43.5154 60.8192C41.8992 61.5246 39.8477 61.8925 37.3611 61.8925C34.3461 61.8925 31.8594 61.4633 29.9635 60.6045C28.0362 59.7459 26.3888 58.2126 24.9901 56.0353C23.5914 53.8581 22.9075 51.0675 22.9075 47.6635C22.9075 43.1249 24.1199 39.629 26.5752 37.2065C29.0308 34.7837 32.481 33.5571 36.9569 33.5571C40.4694 33.5571 43.2046 34.2625 45.225 35.6423C47.2142 37.053 48.7063 39.1996 49.7009 42.0822L42.1167 43.7382C41.9301 43.0943 41.6504 42.4502 41.2774 41.8983C40.8113 41.2542 40.2205 40.7636 39.5058 40.3956C38.7909 40.0276 37.9827 39.8744 37.1744 39.8744C35.2163 39.8744 33.7245 40.6409 32.6987 42.2049C31.9216 43.3396 31.5175 45.1489 31.5175 47.6023C31.5175 50.6381 31.9838 52.7233 32.9162 53.8581C33.8487 54.9926 35.1541 55.5447 36.8636 55.5447C38.511 55.5447 39.7544 55.0847 40.5935 54.1954C41.4329 53.2448 42.0545 51.9262 42.4275 50.2087ZM59.9893 34.0172H68.568V43.6156H77.955V34.0172H86.5961V61.4325H77.955V50.3314H68.568V61.4325H59.9893V34.0172Z" fill="white"/>
<path d="M85.4149 47.7253C85.4149 43.2479 86.6892 39.752 89.207 37.268C91.7245 34.7841 95.268 33.5269 99.7751 33.5269C104.406 33.5269 107.95 34.7534 110.467 37.2068C112.985 39.66 114.228 43.0946 114.228 47.5106C114.228 50.7305 113.669 53.3372 112.581 55.3918C111.524 57.4157 109.877 59.0717 107.857 60.1756C105.774 61.3102 103.194 61.8929 100.117 61.8929C96.9776 61.8929 94.3978 61.4022 92.3464 60.421C90.2327 59.3783 88.492 57.7531 87.3419 55.7597C86.0676 53.6131 85.4149 50.9452 85.4149 47.7253ZM93.9937 47.7559C93.9937 50.5158 94.522 52.5092 95.5478 53.7358C96.5735 54.9317 98.0033 55.545 99.8062 55.545C101.64 55.545 103.07 54.9623 104.096 53.7664C105.121 52.5704 105.619 50.4546 105.619 47.3879C105.619 44.8119 105.09 42.9105 104.033 41.7454C102.976 40.5494 101.547 39.9667 99.744 39.9667C98.1588 39.9053 96.6357 40.58 95.5789 41.776C94.522 42.972 93.9937 44.9654 93.9937 47.7559ZM123.025 47.7253C123.025 43.2479 124.299 39.752 126.817 37.268C129.335 34.7841 132.878 33.5269 137.385 33.5269C142.016 33.5269 145.591 34.7534 148.077 37.2068C150.564 39.66 151.838 43.0946 151.838 47.5106C151.838 50.7305 151.279 53.3372 150.191 55.3918C149.134 57.4157 147.487 59.0717 145.467 60.1756C143.384 61.3102 140.804 61.8929 137.727 61.8929C134.588 61.8929 132.008 61.4022 129.956 60.421C127.843 59.3783 126.102 57.7531 124.952 55.7597C123.678 53.6131 123.025 50.9452 123.025 47.7253ZM131.604 47.7559C131.604 50.5158 132.132 52.5092 133.158 53.7358C134.184 54.9317 135.613 55.545 137.416 55.545C139.25 55.545 140.68 54.9623 141.706 53.7664C142.731 52.5704 143.229 50.4546 143.229 47.3879C143.229 44.8119 142.7 42.9105 141.643 41.7454C140.587 40.5494 139.157 39.9667 137.354 39.9667C135.769 39.9053 134.215 40.58 133.189 41.776C132.132 42.972 131.604 44.9654 131.604 47.7559Z" fill="white"/>
<path d="M159.516 34.0171V54.6862H172.913V61.4327H150.906V34.0171H159.516Z" fill="white"/>
<path fill-rule="evenodd" clip-rule="evenodd" d="M123.42 8.78925C115.406 14.7477 113.507 24.3317 117.897 30.0793C122.287 35.8269 132.148 36.6673 140.163 30.7087C148.177 24.7503 150.076 15.1663 145.686 9.41872C141.296 3.67114 131.434 2.83081 123.42 8.78925ZM114.408 32.6729C108.095 24.4077 111.523 12.2209 120.783 5.33638C130.043 -1.54812 142.861 -1.44013 149.174 6.82505C155.488 15.0902 152.06 27.277 142.8 34.1616C133.54 41.0461 120.721 40.9382 114.408 32.6729Z" fill="white"/>
<path d="M123.056 17.7334L126.164 15.5868L129.987 20.9533C130.64 21.8121 131.138 22.7319 131.511 23.744C131.728 24.5105 131.666 25.3385 131.355 26.0745C130.951 26.9945 130.298 27.7611 129.428 28.3132C128.402 29.0185 127.532 29.4171 126.786 29.5398C126.071 29.6624 125.325 29.5398 124.641 29.2332C123.895 28.8652 123.242 28.3438 122.745 27.6693L125.418 25.2159C125.636 25.5532 125.916 25.8598 126.226 26.1051C126.444 26.2586 126.693 26.3506 126.972 26.3506C127.19 26.3506 127.408 26.2586 127.563 26.1359C127.874 25.9518 128.091 25.5839 128.06 25.2159C127.967 24.6946 127.75 24.1732 127.408 23.7746L123.056 17.7334ZM132.381 21.1373L135.209 18.9293C135.52 19.2973 135.924 19.5733 136.359 19.7267C136.981 19.9107 137.634 19.788 138.162 19.3893C138.535 19.144 138.846 18.8067 138.97 18.3774C139.157 17.8254 138.846 17.2121 138.287 17.0281C138.193 16.9974 138.1 16.9667 138.007 16.9667C137.634 16.9361 136.981 17.0894 136.017 17.4881C134.432 18.132 133.189 18.3774 132.256 18.2854C131.355 18.1934 130.516 17.7334 130.018 16.9667C129.645 16.4454 129.459 15.8321 129.428 15.2188C129.428 14.5134 129.614 13.8081 130.018 13.2255C130.609 12.3975 131.324 11.6922 132.194 11.1402C133.5 10.2509 134.65 9.82153 135.644 9.82153C136.639 9.82153 137.572 10.2815 138.442 11.2322L135.644 13.4095C135.085 12.7041 134.028 12.5508 133.313 13.1028L133.22 13.1948C132.909 13.3788 132.692 13.6548 132.567 13.9921C132.474 14.2375 132.536 14.5134 132.692 14.7281C132.816 14.8814 133.002 15.0041 133.22 15.0041C133.469 15.0348 133.904 14.9121 134.526 14.6361C136.08 13.9921 137.261 13.6241 138.069 13.5015C138.753 13.3788 139.468 13.4401 140.12 13.7161C140.711 13.9615 141.208 14.3908 141.55 14.9121C141.985 15.5254 142.234 16.2614 142.265 17.0281C142.296 17.8254 142.079 18.592 141.643 19.2667C141.084 20.0947 140.369 20.8 139.53 21.352C137.82 22.5172 136.421 23.008 135.302 22.8239C134.09 22.6398 133.096 22.0265 132.381 21.1373Z" fill="white"/>
</svg>
