<svg width="100" height="100" viewBox="0 0 100 100" fill="none" xmlns="http://www.w3.org/2000/svg">
<rect width="99.3186" height="100" rx="49.6593" fill="#58C69E"/>
<path d="M46.6407 52.1184C44.8131 57.6012 45.81 63.1672 45.4777 68.7331C45.4777 68.9823 46.0592 69.3977 46.3915 69.4808C47.2222 69.73 47.8868 69.3977 48.3853 68.9823C50.0467 67.4039 50.7944 65.5763 50.9605 63.6656C51.459 59.0966 52.1236 54.4444 51.6251 49.8754C51.7082 49.2939 51.7913 48.7124 51.7913 48.1308C51.9574 45.8048 52.0405 43.4787 51.9574 41.2357C53.6189 42.9803 55.2804 44.4756 57.2741 45.8048C58.1049 46.3863 59.1848 46.4694 60.1817 45.3063C61.0955 44.3094 61.2617 43.1464 60.6802 42.2326C59.6002 40.7373 58.5202 39.2419 57.1911 37.9128C55.0311 35.8359 52.7051 34.0083 50.4621 32.0145C50.0467 31.1007 48.9668 30.7684 48.053 31.1838L47.1391 31.6822C42.2378 34.1745 39.2471 38.6604 35.2596 42.0665C35.0934 42.2326 35.1765 42.8972 35.4257 43.2295C35.8411 43.9772 36.5057 44.2264 37.1703 44.2264C39.4133 44.3925 41.2409 43.5618 42.6532 42.3988C43.8162 41.4019 45.0623 40.4881 46.2253 39.5742C46.0592 40.6542 45.9761 41.7342 45.9761 42.8141C46.0592 45.9709 46.3915 49.0447 46.6407 52.1184Z" fill="white"/>
<path d="M86.3499 53.946C84.9377 59.1796 82.5286 64.4133 78.9564 69.1485C78.541 69.73 78.0426 70.3115 77.5441 70.893L76.7965 71.7238L76.4642 72.1391L76.0488 72.5545C75.5504 73.053 74.9688 73.6345 74.4704 74.1329L74.055 74.5483L73.5566 74.8806L72.6428 75.6282C71.5628 76.6251 70.2336 77.4559 68.9875 78.3697C68.406 78.785 67.6584 79.1173 66.9938 79.5327C66.3292 79.865 65.6646 80.3634 65 80.6127C61.7601 82.2741 58.1879 83.271 54.5327 83.8525C53.6189 83.9356 52.7051 84.1848 51.7913 84.1848L50.4621 84.2679H49.7975H49.4652H49.2991H49.216L46.3915 84.1018L45.6438 84.0187C45.3946 84.0187 45.2284 83.9356 44.9792 83.9356L43.65 83.6864L42.3209 83.4372C41.9055 83.3541 41.4071 83.188 40.9917 83.1049L39.6625 82.7726C39.2471 82.6895 38.7487 82.5234 38.3333 82.3572L35.8411 81.3603C35.0104 80.945 34.1796 80.5296 33.432 80.1973C30.2752 78.4527 27.3676 76.2928 24.7923 73.7175C22.3001 71.1423 20.2233 68.0685 18.6449 64.9117L18.0633 63.6656L17.731 63.0841L17.4818 62.4195L16.568 59.8442L15.9034 57.2689C15.8204 57.0197 15.8204 56.8536 15.7373 56.6044L15.6542 55.9398L15.4881 54.6106L15.2388 53.2814L15.1558 51.9522L15.0727 50.6231V49.9585V49.8754V49.7092V49.3769L15.2388 46.4694C15.3219 45.5556 15.4881 44.7248 15.5711 43.8941C16.1526 40.405 17.3157 36.9159 18.9772 33.676C20.8048 30.6023 23.0478 27.7778 25.6231 25.2856C33.8474 17.4766 46.0592 14.3198 57.0249 17.1443L59.1018 17.6428L61.0955 18.3904L62.0924 18.7227C62.4247 18.8889 62.757 19.055 63.0893 19.1381L65 20.0519C67.4091 21.4642 69.8183 22.9595 71.8951 24.8702C72.9751 25.784 73.8889 26.864 74.8858 27.8609C75.3842 28.3593 75.7996 28.9408 76.2149 29.5223C76.6303 30.1038 77.1288 30.6023 77.4611 31.1838C78.2087 32.3468 79.0395 33.5099 79.621 34.839C79.9533 35.5036 80.2856 36.0851 80.6179 36.7497L81.3655 38.7435C83.7747 44.7248 84.107 50.3738 85.6854 49.8754C86.3499 49.6262 86.8484 48.297 87.1807 45.9709C87.1807 44.8079 87.1807 43.4787 87.0976 41.9003C86.9315 41.1526 86.8484 40.3219 86.6822 39.4912C86.5992 39.0758 86.5161 38.6604 86.3499 38.162C86.1838 37.7466 86.0176 37.2482 85.9346 36.8328C84.9377 33.5929 83.2762 30.5192 81.4486 27.6116C80.4517 26.1994 79.5379 24.7871 78.2918 23.541L77.4611 22.5441C77.2118 22.2118 76.8795 21.8795 76.5472 21.6303L74.6366 19.8858C71.9782 17.6428 69.1537 15.649 65.9969 14.1537C64.5016 13.3229 62.8401 12.8245 61.1786 12.1599C60.3479 11.8276 59.5171 11.7445 58.6864 11.4953C57.8557 11.2461 57.0249 10.9969 56.1111 10.9138L53.9512 10.5815L52.8712 10.4154L52.1236 10.0831L50.2129 10H49.7144H49.4652H49.2991H49.1329H49.0498L48.053 10.0831C46.6407 10.1661 45.2284 10.1661 43.8993 10.4154C42.487 10.6646 41.1578 10.8307 39.8287 11.2461C34.4289 12.5753 29.3614 15.0675 24.9585 18.5566C20.6386 22.0457 16.9834 26.3655 14.4912 31.2669L13.5774 33.0945C13.3281 33.7591 12.9958 34.3406 12.7466 35.0052L12.1651 36.999L11.8328 37.9958C11.7497 38.3281 11.6667 38.6604 11.5836 38.9927L11.0852 40.9865C11.0021 41.3188 10.919 41.6511 10.8359 41.9834L10.6698 43.0633C10.5036 44.4756 10.2544 45.8878 10.2544 47.134C9.6729 51.9522 10.0883 57.1028 11.5005 61.9211C12.9128 66.7394 15.2388 71.3084 18.4787 75.2959C21.6355 79.2835 25.6231 82.6064 30.109 85.0986L33.5981 86.7601C34.7612 87.2586 36.0073 87.6739 37.1703 88.0893C38.4164 88.4216 39.6625 88.7539 40.9086 89.0862C42.1547 89.3354 43.567 89.5016 44.8131 89.7508L45.3115 89.8338H45.7269L46.6407 89.9169L48.3853 90H48.8006H49.0498H49.2991H49.3821H49.4652L50.4621 89.9169L52.3728 89.8338L53.3697 89.7508C53.702 89.7508 54.0343 89.6677 54.3666 89.5846L56.2773 89.2523C57.5234 89.0862 58.7695 88.7539 60.0156 88.4216C65 87.0924 69.6521 84.6833 73.7227 81.6095C77.7933 78.4527 81.2824 74.6314 83.8577 70.2284C84.19 69.6469 84.5223 69.1485 84.8546 68.567L85.6854 66.8224C85.9346 66.2409 86.2669 65.6594 86.5161 65.0779L87.1807 63.2503C87.4299 62.6687 87.596 62.0872 87.8453 61.4226L88.3437 59.595L88.8422 57.7674L89.1745 55.7736C89.5898 53.7799 89.0083 51.2046 88.676 50.3738C87.7622 48.7124 87.0976 50.7892 86.3499 53.946Z" fill="white"/>
</svg>
